<svg xmlns="http://www.w3.org/2000/svg" xmlns:xlink="http://www.w3.org/1999/xlink" width="32" height="32" viewBox="0 0 32 32">
    <defs>
        <path id="a" d="M0 .606h20.412V21H0z"/>
    </defs>
    <g fill="none" fill-rule="evenodd">
        <path fill="#D8F0FF" d="M16 32C7.163 32 0 24.837 0 16S7.163 0 16 0s16 7.163 16 16-7.163 16-16 16z"/>
        <g transform="translate(6 5.202)">
            <mask id="b" fill="#fff">
                <use xlink:href="#a"/>
            </mask>
            <path fill="#2377B6" d="M1.504 6.89V4.527c0-.5.358-.858.788-.858h.86v.858c0 .933 1.504.933 1.504 0v-.858h11.1v.858c0 .933 1.505.933 1.505 0v-.858h.86c.429 0 .786.358.786.858v2.365H1.504zm0 1.505h17.403v10.313c0 .43-.357.787-.786.787H2.292a.794.794 0 0 1-.788-.787V8.395zm3.152-6.232v-.86c0-.93-1.504-.93-1.504 0v.86h-.86C1.074 2.163 0 3.238 0 4.526v14.182C0 19.998 1.074 21 2.292 21h15.829c1.217 0 2.291-1.002 2.291-2.292V4.526c0-1.288-1.074-2.363-2.291-2.363h-.86v-.86c0-.93-1.504-.93-1.504 0v.86H4.656z" mask="url(#b)"/>
        </g>
        <path fill="#F36368" d="M16.007 21.732v-4.307c-.8.616-1.34.924-1.618.924a.478.478 0 0 1-.352-.16.511.511 0 0 1-.155-.366c0-.161.051-.28.152-.355.101-.076.279-.173.535-.294.381-.18.686-.369.916-.568a3.84 3.84 0 0 0 .607-.667c.177-.246.292-.397.346-.454.054-.057.155-.085.303-.085.167 0 .301.064.402.194.1.13.152.307.152.535v5.418c0 .635-.217.951-.649.951a.594.594 0 0 1-.463-.193c-.118-.13-.176-.321-.176-.573"/>
    </g>
</svg>
