<svg xmlns="http://www.w3.org/2000/svg" xmlns:xlink="http://www.w3.org/1999/xlink" width="32" height="32" viewBox="0 0 32 32">
    <defs>
        <path id="a" d="M.281.678h9.195v9.194H.281z"/>
        <path id="c" d="M0 .79h18.67v18.672H0z"/>
    </defs>
    <g fill="none" fill-rule="evenodd">
        <path fill="#D8F0FF" d="M16 32C7.163 32 0 24.837 0 16S7.163 0 16 0s16 7.163 16 16-7.163 16-16 16z"/>
        <path fill="#2377B6" d="M9.275 20.717c-.526 0-.955.672-.955 1.499 0 .83.429 1.501.955 1.501h3.773c.528 0 .958-.672.958-1.501 0-.827-.43-1.499-.958-1.499H9.275zM22.726 13.053a3.61 3.61 0 1 1 0-7.221 3.61 3.61 0 0 1 0 7.221m0-8.123a4.513 4.513 0 1 0-.001 9.026 4.513 4.513 0 0 0 0-9.026"/>
        <g transform="translate(17.846 4.169)">
            <mask id="b" fill="#fff">
                <use xlink:href="#a"/>
            </mask>
            <path fill="#2377B6" d="M4.88 1.748a3.53 3.53 0 0 0-3.526 3.526A3.53 3.53 0 0 0 4.879 8.8a3.53 3.53 0 0 0 3.526-3.526A3.53 3.53 0 0 0 4.88 1.748m0 7.22a3.698 3.698 0 0 1-3.694-3.694A3.698 3.698 0 0 1 4.88 1.58a3.698 3.698 0 0 1 3.695 3.694A3.698 3.698 0 0 1 4.879 8.97m0-8.123A4.433 4.433 0 0 0 .451 5.274a4.434 4.434 0 0 0 4.428 4.43 4.433 4.433 0 0 0 4.428-4.43A4.432 4.432 0 0 0 4.88.846m0 9.026A4.604 4.604 0 0 1 .281 5.274 4.603 4.603 0 0 1 4.88.677a4.602 4.602 0 0 1 4.598 4.597 4.603 4.603 0 0 1-4.598 4.598" mask="url(#b)"/>
        </g>
        <path fill="#2377B6" d="M16.436 10.74h.182a.45.45 0 1 0 0-.902H7.474l1.092-1.354h8.574a.45.45 0 1 0 0-.902H8.341a.45.45 0 0 0-.352.169l-1.805 2.257v.012a.403.403 0 0 0-.027.043l-.02.037a.182.182 0 0 0-.016.04l-.014.044v.04c-.001.015-.001.031 0 .047l-.022.018v15.344c0 .25.202.451.45.451H21.88c.044 0 .09-.008.133-.022h.022a.444.444 0 0 0 .117-.066l2.257-1.805a.447.447 0 0 0 .178-.363v-8.8a.45.45 0 1 0-.903 0v8.574l-1.353 1.083V15.48a.452.452 0 1 0-.903 0v4.8l-3.024-.944a.452.452 0 0 0-.582.486l.138 1.114-2.256-.698a.45.45 0 0 0-.267.862l2.933.903c.04.011.083.02.125.02a.45.45 0 0 0 .29-.107.452.452 0 0 0 .161-.402l-.138-1.106 2.62.819v3.955H6.987V10.74h1.938L7.91 13.99a.45.45 0 0 0 .487.582l1.112-.137-.697 2.255c-.073.238.06.491.298.565a.42.42 0 0 0 .133.029.45.45 0 0 0 .431-.319l.903-2.931a.451.451 0 0 0-.488-.586l-1.108.138.89-2.846H16.435z"/>
        <g transform="translate(6 6.707)">
            <mask id="d" fill="#fff">
                <use xlink:href="#c"/>
            </mask>
            <path fill="#2377B6" d="M.169 3.623v15.303c0 .202.164.367.367.367h15.343a.387.387 0 0 0 .107-.018l.033-.005a.363.363 0 0 0 .082-.047l2.255-1.805a.37.37 0 0 0 .146-.297v-8.8a.367.367 0 1 0-.733 0v8.614l-.032.026-1.49 1.193V8.772a.367.367 0 0 0-.734 0v4.916l-.11-.033-3.024-.946a.373.373 0 0 0-.345.069.368.368 0 0 0-.128.327l.154 1.243-2.382-.736a.365.365 0 0 0-.448.256.368.368 0 0 0 .234.445l2.93.901c.124.04.244.008.337-.07a.367.367 0 0 0 .13-.327l-.153-1.236 2.805.877v4.1H.903V3.95H3.04l-.033.11L1.99 7.31a.366.366 0 0 0 .07.344c.08.095.204.15.326.128l1.243-.154-.736 2.381c-.06.193.05.4.242.46.04.014.077.022.114.024a.362.362 0 0 0 .344-.258l.903-2.932a.366.366 0 0 0-.238-.462.32.32 0 0 0-.158-.015l-1.238.154.947-3.03h6.809a.367.367 0 0 0 0-.733h-9.32l1.228-1.523h8.615a.367.367 0 0 0 0-.733h-8.8a.365.365 0 0 0-.286.137L.268 3.329l.005.024-.02.009a.418.418 0 0 0-.023.035l-.02.036c-.003.006-.005.015-.008.025l-.011.059v.043l.002.043-.024.02zm.367 15.839A.535.535 0 0 1 0 18.926V3.541l.021-.017.001-.011.004-.063.015-.043a.302.302 0 0 1 .02-.052l.02-.039.019-.03.017-.038L1.923.99a.53.53 0 0 1 .418-.2h8.8a.536.536 0 0 1 0 1.07H2.607l-.956 1.185h8.967a.536.536 0 0 1 0 1.072H3.932l-.83 2.66.977-.121a.538.538 0 0 1 .58.695l-.904 2.931a.53.53 0 0 1-.512.378.47.47 0 0 1-.164-.035.536.536 0 0 1-.348-.667l.659-2.131-.983.12a.537.537 0 0 1-.578-.69l.981-3.14H1.07V18.39h14.274v-3.809l-2.436-.76.122.976a.538.538 0 0 1-.685.58l-2.932-.903a.538.538 0 0 1-.346-.65.537.537 0 0 1 .659-.375l2.133.66-.121-.983a.532.532 0 0 1 .188-.477.533.533 0 0 1 .502-.101l2.916.911V8.772a.535.535 0 1 1 1.07 0v9.03l1.186-.947V8.32a.535.535 0 1 1 1.07 0v8.8a.538.538 0 0 1-.21.43l-2.255 1.805a.55.55 0 0 1-.14.079l-.04.004a.522.522 0 0 1-.144.023H.536z" mask="url(#d)"/>
        </g>
        <path fill="#F36368" d="M22.726 6.736c-.285 0-.775.283-.775.649l.258 2.82c0 .357.23.648.517.648.285 0 .516-.29.516-.648l.257-2.82c0-.366-.49-.649-.773-.649"/>
        <path fill="#F36368" d="M22.726 6.82c-.26 0-.69.264-.69.565l.256 2.812c0 .318.195.572.434.572.237 0 .432-.254.432-.564l.256-2.828c0-.293-.429-.557-.688-.557M22.726 11.153a.499.499 0 1 1-.001.998.499.499 0 0 1 0-.998"/>
        <path fill="#F36368" d="M22.726 11.238a.415.415 0 1 0 0 .83.415.415 0 0 0 0-.83m0 .997a.583.583 0 1 1 0-1.166.583.583 0 0 1 0 1.166"/>
    </g>
</svg>
