<?xml version="1.0" encoding="UTF-8"?>
<!DOCTYPE svg PUBLIC "-//W3C//DTD SVG 1.1//EN" "http://www.w3.org/Graphics/SVG/1.1/DTD/svg11.dtd">
<!-- Creator: CorelDRAW 2019 (64-Bit) -->
<svg xmlns="http://www.w3.org/2000/svg" xml:space="preserve" width="32px" height="32px" version="1.1" style="shape-rendering:geometricPrecision; text-rendering:geometricPrecision; image-rendering:optimizeQuality; fill-rule:evenodd; clip-rule:evenodd"
viewBox="0 0 32 32"
 xmlns:xlink="http://www.w3.org/1999/xlink"
 xmlns:xodm="http://www.corel.com/coreldraw/odm/2003">
 <defs>
  <style type="text/css">
   <![CDATA[
    .fil0 {fill:#D5EBF9;fill-rule:nonzero}
    .fil3 {fill:#CF848F;fill-rule:nonzero}
    .fil2 {fill:#377DB5;fill-rule:nonzero}
    .fil1 {fill:#327DB5;fill-rule:nonzero}
   ]]>
  </style>
 </defs>
 <g id="Layer_x0020_1">
  <metadata id="CorelCorpID_0Corel-Layer"/>
  <g id="_2798837219312">
   <path class="fil0" d="M31.82 16c0,8.74 -7.08,15.82 -15.82,15.82 -8.74,0 -15.82,-7.08 -15.82,-15.82 0,-8.74 7.08,-15.82 15.82,-15.82 8.74,0 15.82,7.08 15.82,15.82z"/>
   <path class="fil1" d="M4.8 15.99c0,6.18 5.02,11.21 11.18,11.21 6.2,0.01 11.23,-5.03 11.23,-11.23 -0.01,-6.16 -5.04,-11.17 -11.22,-11.17 -6.16,0.01 -11.19,5.03 -11.19,11.19zm-1.02 -0.01c0.03,-6.75 5.51,-12.23 12.23,-12.2 6.82,0.03 12.24,5.52 12.21,12.27 -0.03,6.78 -5.49,12.17 -12.2,12.17 -6.79,0.01 -12.27,-5.5 -12.24,-12.24z"/>
   <path class="fil2" d="M9.23 14.82c-0.08,0.25 -0.08,0.26 0.14,0.37 0.06,0.03 0.12,0.06 0.18,0.08 0.56,0.23 1.15,0.24 1.74,0.19 0.08,-0.01 0.15,-0.02 0.22,-0.02 0,-0.11 0,-0.2 0,-0.3 -0.79,0.08 -1.55,0 -2.28,-0.32zm11.25 0.33c0,0.08 0.01,0.15 0,0.21 0,0.06 0.02,0.08 0.08,0.09 0.45,0.04 0.89,0.06 1.34,-0.02 0.3,-0.06 0.59,-0.15 0.86,-0.31 0.03,-0.02 0.06,-0.06 0.06,-0.09 -0.01,-0.08 -0.03,-0.16 -0.05,-0.25 -0.73,0.35 -1.49,0.44 -2.29,0.37zm-2.02 -6.59c-0.13,0.31 -0.32,0.58 -0.56,0.8 -0.69,0.61 -1.49,0.86 -2.4,0.76 -0.75,-0.08 -1.34,-0.43 -1.74,-1.08 -0.09,-0.15 -0.16,-0.32 -0.24,-0.48 -0.07,0.04 -0.15,0.08 -0.23,0.12 0,0.02 0.01,0.03 0.01,0.04 0.2,0.62 0.6,1.08 1.17,1.34 1.22,0.57 2.38,0.42 3.45,-0.38 0.35,-0.26 0.6,-0.6 0.79,-1 -0.08,-0.04 -0.16,-0.08 -0.25,-0.12zm-4.66 0.13c0.19,0.44 0.5,0.78 0.92,1 0.98,0.51 2.39,0.26 3.15,-0.57 0.11,-0.12 0.2,-0.26 0.3,-0.39 -1.47,0.66 -2.92,0.64 -4.37,-0.04zm-2.09 13.98c0,0.06 0,0.11 0,0.15 -0.02,0.1 0.02,0.13 0.12,0.16 0.59,0.15 1.19,0.26 1.79,0.33 0.95,0.13 1.91,0.19 2.87,0.16 0.95,-0.03 1.9,-0.12 2.84,-0.31 0.32,-0.06 0.64,-0.14 0.97,-0.21 0,-0.07 0,-0.12 -0.01,-0.17 0,-0.03 0,-0.06 0,-0.11 -2.86,0.53 -5.71,0.55 -8.58,0zm8.78 -7.62c0.79,0.07 1.54,-0.02 2.26,-0.36 0,-0.02 0,-0.03 0,-0.04 -0.2,-1.1 -0.41,-2.2 -0.6,-3.3 -0.07,-0.42 -0.2,-0.82 -0.47,-1.16 -0.01,-0.02 -0.03,-0.04 -0.06,-0.07 -0.08,0.36 -0.27,0.66 -0.47,0.93 -0.43,0.56 -0.62,1.19 -0.65,1.88 -0.02,0.69 -0.01,1.38 -0.02,2.07 0,0.01 0.01,0.03 0.01,0.05zm-10.11 -4.93c-0.22,0.24 -0.42,0.65 -0.48,0.97 -0.17,0.94 -0.34,1.88 -0.51,2.82 -0.05,0.27 -0.1,0.54 -0.15,0.8 0.63,0.33 1.57,0.43 2.27,0.32 0,-0.01 0.01,-0.02 0.01,-0.02 -0.01,-0.75 0,-1.49 -0.03,-2.23 -0.03,-0.59 -0.21,-1.13 -0.56,-1.62 -0.22,-0.32 -0.46,-0.63 -0.55,-1.04zm9.91 12.45c0,-0.03 0,-0.07 0,-0.1 0,-0.31 0.01,-0.62 0.01,-0.94 0,-2.71 0,-5.42 -0.01,-8.14 0,-0.42 0.04,-0.84 0.13,-1.26 0.12,-0.51 0.39,-0.95 0.7,-1.37 0.15,-0.21 0.26,-0.45 0.33,-0.72 0.01,-0.06 0,-0.09 -0.06,-0.12 -0.21,-0.1 -0.41,-0.2 -0.6,-0.31 -0.43,-0.23 -0.84,-0.49 -1.3,-0.66 -0.23,-0.08 -0.46,-0.16 -0.68,-0.23 -0.08,0.12 -0.14,0.24 -0.21,0.35 -0.08,0.12 -0.15,0.23 -0.25,0.32 -0.96,1.02 -2.13,1.32 -3.46,0.94 -0.81,-0.23 -1.39,-0.75 -1.68,-1.56 0,-0.02 -0.01,-0.03 -0.02,-0.05 -0.5,0.17 -0.99,0.34 -1.45,0.6 -0.37,0.2 -0.75,0.4 -1.12,0.6 -0.07,0.03 -0.08,0.07 -0.06,0.13 0.07,0.32 0.23,0.59 0.41,0.84 0.22,0.3 0.41,0.61 0.53,0.96 0.17,0.51 0.21,1.04 0.21,1.57 0,1.83 0,3.66 0,5.49 0,1.19 0,2.37 0,3.56 0,0.03 0,0.07 0,0.1 2.61,0.53 5.66,0.56 8.58,0zm-8.77 -6.92c-0.33,0.01 -0.65,0.03 -0.96,0.01 -0.54,-0.01 -1.05,-0.14 -1.51,-0.43 -0.07,-0.05 -0.08,-0.09 -0.07,-0.17 0.24,-1.28 0.48,-2.55 0.7,-3.83 0.09,-0.49 0.28,-0.93 0.61,-1.3 0.05,-0.06 0.12,-0.11 0.19,-0.15 0.34,-0.19 0.69,-0.36 1.03,-0.56 0.35,-0.19 0.71,-0.36 1.09,-0.5 0.34,-0.12 0.68,-0.26 1.01,-0.39 0.14,0.08 0.29,0.18 0.45,0.26 0.7,0.35 1.45,0.46 2.23,0.42 0.54,-0.02 1.05,-0.13 1.54,-0.36 0.12,-0.05 0.23,-0.11 0.35,-0.18 0.07,-0.04 0.13,-0.1 0.19,-0.15 0.57,0.23 1.15,0.44 1.71,0.69 0.41,0.19 0.79,0.45 1.2,0.64 0.59,0.27 0.87,0.77 0.99,1.36 0.22,1.05 0.39,2.12 0.59,3.18 0.05,0.28 0.1,0.56 0.16,0.84 0.02,0.11 -0.01,0.16 -0.1,0.22 -0.39,0.24 -0.82,0.37 -1.28,0.4 -0.35,0.02 -0.71,-0.01 -1.07,-0.01 -0.02,0 -0.05,0 -0.09,0 0,0.04 0,0.08 0,0.12 0,2.4 0,4.79 0.01,7.19 0,0.1 -0.03,0.15 -0.13,0.17 -0.66,0.18 -1.32,0.3 -2,0.39 -0.31,0.04 -0.62,0.06 -0.94,0.1 -0.9,0.09 -1.8,0.09 -2.7,0.01 -0.92,-0.07 -1.84,-0.18 -2.73,-0.41 -0.13,-0.03 -0.26,-0.07 -0.39,-0.1 -0.07,-0.02 -0.08,-0.05 -0.08,-0.12 0,-0.56 0,-1.13 0,-1.7 0,-1.84 0,-3.68 0,-5.53 0,-0.04 0,-0.08 0,-0.11z"/>
   <path class="fil3" d="M13.22 8.93c0.32,1.18 1.58,1.61 2.69,1.64 0.64,0.02 1.2,-0.05 1.75,-0.4 0.49,-0.31 0.88,-0.73 1.17,-1.23 0.08,-0.14 -0.14,-0.27 -0.22,-0.13 -0.25,0.44 -0.59,0.82 -1.01,1.1 -0.5,0.33 -1,0.42 -1.59,0.41 -1.02,-0.02 -2.24,-0.35 -2.55,-1.46 -0.04,-0.16 -0.29,-0.09 -0.24,0.07l0 0z"/>
   <path class="fil3" d="M20.64 15.28c0.72,0.04 1.44,-0.1 2.11,-0.38 0.15,-0.07 0.02,-0.29 -0.13,-0.22 -0.62,0.27 -1.3,0.38 -1.98,0.35 -0.17,-0.01 -0.17,0.24 0,0.25l0 0z"/>
   <path class="fil3" d="M11.79 22.72c2.81,0.64 5.73,0.64 8.54,-0.03 0.16,-0.03 0.09,-0.28 -0.07,-0.24 -2.76,0.65 -5.64,0.66 -8.41,0.02 -0.16,-0.04 -0.22,0.21 -0.06,0.25l0 0z"/>
   <path class="fil3" d="M9.26 14.87c0.66,0.3 1.38,0.45 2.11,0.43 0.16,0 0.16,-0.26 0,-0.25 -0.68,0.02 -1.36,-0.12 -1.98,-0.4 -0.15,-0.07 -0.27,0.15 -0.13,0.22l0 0z"/>
  </g>
 </g>
</svg>
