<?xml version="1.0" encoding="UTF-8"?>
<!DOCTYPE svg PUBLIC "-//W3C//DTD SVG 1.1//EN" "http://www.w3.org/Graphics/SVG/1.1/DTD/svg11.dtd">
<!-- Creator: CorelDRAW 2019 (64-Bit) -->
<svg xmlns="http://www.w3.org/2000/svg" xml:space="preserve" width="32px" height="32px" version="1.1" style="shape-rendering:geometricPrecision; text-rendering:geometricPrecision; image-rendering:optimizeQuality; fill-rule:evenodd; clip-rule:evenodd"
viewBox="0 0 32 32"
 xmlns:xlink="http://www.w3.org/1999/xlink"
 xmlns:xodm="http://www.corel.com/coreldraw/odm/2003">
 <defs>
  <style type="text/css">
   <![CDATA[
    .fil0 {fill:#D5EBF9;fill-rule:nonzero}
    .fil2 {fill:#BF353E;fill-rule:nonzero}
    .fil1 {fill:#327DB5;fill-rule:nonzero}
   ]]>
  </style>
 </defs>
 <g id="Layer_x0020_1">
  <metadata id="CorelCorpID_0Corel-Layer"/>
  <g id="_2695622370144">
   <path class="fil0" d="M31.92 16c0,8.79 -7.13,15.92 -15.92,15.92 -8.79,0 -15.92,-7.13 -15.92,-15.92 0,-8.79 7.13,-15.92 15.92,-15.92 8.79,0 15.92,7.13 15.92,15.92z"/>
   <path class="fil1" d="M15.99 11.31c-0.01,0 -0.01,0 -0.02,0 -0.06,0.12 -0.11,0.24 -0.16,0.36 0.09,-0.11 0.18,-0.21 0.18,-0.36zm-1.06 1.49c0,0.01 0.01,0.02 0.02,0.03 0.07,-0.06 0.16,-0.1 0.22,-0.17 0.15,-0.21 0.29,-0.43 0.44,-0.65 0.03,-0.04 0.05,-0.08 0.07,-0.11 -0.26,0.3 -0.56,0.56 -0.75,0.9zm0.35 0.28c0.09,-0.04 0.48,-0.93 0.5,-1.07 -0.12,0.17 -0.24,0.34 -0.36,0.51 -0.03,0.05 -0.08,0.09 -0.02,0.16 0.01,0.01 -0.01,0.06 -0.02,0.09 -0.03,0.09 -0.06,0.19 -0.1,0.31zm0.18 -1.52c-0.19,0.25 -0.28,0.52 -0.37,0.78 0.17,-0.18 0.33,-0.37 0.5,-0.57 -0.04,-0.07 -0.08,-0.13 -0.13,-0.21zm-0.17 -0.15c-0.35,0.47 -0.51,1.02 -0.68,1.57 0.07,-0.07 0.14,-0.15 0.18,-0.23 0.03,-0.08 0.04,-0.17 0.07,-0.25 0.13,-0.34 0.27,-0.68 0.47,-0.99 0.03,-0.05 0.02,-0.08 -0.04,-0.1zm0.84 -0.84c0,0.24 0,0.47 -0.01,0.7 0,0.07 0,0.15 -0.02,0.22 -0.13,0.37 -0.27,0.73 -0.41,1.1 -0.06,0.16 -0.13,0.31 -0.19,0.47 0,0.01 0.01,0.01 0.02,0.02 0.01,-0.02 0.03,-0.04 0.04,-0.05 0.08,-0.18 0.17,-0.36 0.26,-0.55 0.2,-0.41 0.32,-0.85 0.4,-1.3 0.03,-0.2 0.02,-0.41 -0.09,-0.61zm-1.35 1.51c-0.26,0.31 -0.5,0.63 -0.69,1.02 0.11,-0.02 0.21,-0.04 0.3,-0.06 0.03,0 0.06,-0.03 0.07,-0.05 0.1,-0.31 0.21,-0.61 0.32,-0.91zm-0.95 1.04c0,0 0.01,0.01 0.01,0.02 0.04,-0.03 0.09,-0.04 0.1,-0.08 0.2,-0.35 0.42,-0.68 0.66,-1 0.14,-0.18 0.25,-0.37 0.43,-0.52 0.06,-0.04 0.09,-0.13 0.13,-0.19 0.01,-0.02 0,-0.05 0,-0.07 -0.01,-0.01 -0.03,-0.01 -0.04,-0.01 -0.47,0.58 -0.97,1.15 -1.29,1.85zm2.65 -2.02c0.01,0.03 0.02,0.07 0.03,0.09 0.1,0.2 0.22,0.38 0.3,0.58 0.14,0.36 0.27,0.73 0.39,1.1 0.1,0.28 0.2,0.56 0.29,0.84 0.02,0.08 0.05,0.1 0.13,0.06 -0.06,-0.38 -0.21,-0.74 -0.35,-1.1 -0.14,-0.39 -0.31,-0.76 -0.48,-1.14 -0.07,-0.16 -0.15,-0.31 -0.31,-0.43zm-0.11 0.14c-0.01,0 -0.02,0 -0.03,-0.01 -0.11,0.65 -0.33,1.26 -0.66,1.83 0.15,0 0.3,0 0.45,0 0.09,0 0.12,0.02 0.1,0.12 0,0.03 -0.01,0.06 -0.02,0.1 -0.02,0.09 -0.04,0.18 -0.06,0.27 0.03,-0.04 0.05,-0.09 0.06,-0.13 0.03,-0.23 0.05,-0.45 0.09,-0.67 0.02,-0.14 0.08,-0.27 0.09,-0.4 0.01,-0.35 0,-0.69 -0.01,-1.04 0,-0.02 -0.01,-0.05 -0.01,-0.07zm0.98 2.47c-0.26,-0.75 -0.49,-1.49 -0.8,-2.21 -0.01,0.04 -0.01,0.06 -0.01,0.1 -0.01,0.27 -0.01,0.54 -0.03,0.82 -0.02,0.22 -0.07,0.45 -0.11,0.67 -0.03,0.15 -0.05,0.3 -0.08,0.46 0.07,0 0.13,0 0.2,0 0.06,0 0.1,0.03 0.09,0.1 0,0.02 0.01,0.04 0.01,0.06 0.24,0 0.48,0 0.73,0zm-4.96 7.49c0.15,-0.61 0.17,-1.21 0.23,-1.82 -0.04,0.02 -0.06,0.03 -0.07,0.04 -0.16,0.09 -0.32,0.19 -0.48,0.28 -0.41,0.22 -0.83,0.4 -1.26,0.55 -0.06,0.02 -0.12,0.07 -0.18,0.1 0.01,0.02 0.01,0.03 0.01,0.05 0.58,0.26 1.16,0.53 1.75,0.8zm5.05 -4.09c-0.01,-0.01 -0.01,-0.01 -0.02,-0.01 -0.03,0.23 -0.08,0.47 -0.09,0.7 -0.04,0.79 -0.07,1.57 -0.1,2.36 -0.01,0.35 -0.01,0.7 -0.02,1.05 0,0.08 -0.01,0.16 -0.02,0.26 0.27,-0.36 0.53,-0.69 0.78,-1.03 0.02,-0.03 0.02,-0.08 0.02,-0.12 -0.06,-0.31 -0.12,-0.63 -0.17,-0.94 -0.05,-0.28 -0.1,-0.57 -0.15,-0.85 -0.04,-0.21 -0.09,-0.41 -0.13,-0.61 -0.04,-0.27 -0.07,-0.54 -0.1,-0.81zm-3.6 7.35c0.41,0.13 2.78,0.29 2.92,0.22 -0.1,-0.11 -0.21,-0.23 -0.32,-0.36 -0.33,-0.4 -0.67,-0.8 -1,-1.21 -0.04,-0.04 -0.08,-0.08 -0.12,-0.12 -0.1,0.11 -0.2,0.21 -0.29,0.3 -0.08,0.09 -0.16,0.16 -0.24,0.24 -0.26,0.25 -0.52,0.5 -0.78,0.75 -0.06,0.05 -0.11,0.11 -0.17,0.18zm0.09 -0.23c0.02,-0.01 0.04,-0.02 0.06,-0.04 0.3,-0.25 0.58,-0.52 0.84,-0.81 0.12,-0.14 0.27,-0.28 0.39,-0.42 0.04,-0.05 0.06,-0.12 0.07,-0.19 0,-0.15 0.01,-0.31 0,-0.46 -0.04,-0.7 0.08,-1.39 0.16,-2.08 0.06,-0.46 0.13,-0.92 0.17,-1.39 0.05,-0.6 0.11,-1.21 0.21,-1.81 0.04,-0.17 0.05,-0.35 0.07,-0.52 -0.02,0.02 -0.03,0.03 -0.04,0.05 -0.11,0.41 -0.22,0.81 -0.33,1.22 -0.07,0.28 -0.13,0.57 -0.2,0.85 -0.05,0.17 -0.11,0.34 -0.15,0.51 -0.04,0.19 -0.07,0.38 -0.11,0.57 -0.05,0.29 -0.09,0.59 -0.16,0.87 -0.16,0.64 -0.41,1.25 -0.53,1.9 -0.03,0.17 -0.12,0.33 -0.16,0.5 -0.1,0.42 -0.19,0.83 -0.29,1.25zm-3.15 -4.07c0,0.01 0.01,0.02 0.01,0.02 0.12,-0.04 0.23,-0.08 0.35,-0.12 0.46,-0.19 0.89,-0.43 1.32,-0.67 0.13,-0.08 0.21,-0.17 0.22,-0.32 0,-0.07 0.02,-0.14 0.05,-0.21 0.05,-0.11 0.1,-0.22 0.15,-0.34 0.08,-0.21 0.16,-0.42 0.24,-0.63 0.12,-0.27 0.24,-0.54 0.37,-0.82 0.11,-0.24 0.23,-0.48 0.33,-0.73 0.11,-0.27 0.18,-0.54 0.29,-0.8 0.16,-0.36 0.35,-0.7 0.51,-1.05 0.1,-0.22 0.16,-0.45 0.24,-0.67 0,-0.01 -0.01,-0.01 -0.02,-0.01 -0.01,0.01 -0.02,0.03 -0.03,0.04 -0.26,0.44 -0.51,0.88 -0.78,1.31 -0.3,0.47 -0.62,0.94 -0.93,1.41 -0.25,0.4 -0.5,0.81 -0.75,1.21 -0.16,0.25 -0.33,0.48 -0.49,0.73 -0.32,0.49 -0.64,0.98 -0.96,1.47 -0.04,0.06 -0.08,0.12 -0.12,0.18zm0.85 0.85c-0.06,0.16 -0.12,0.32 -0.18,0.48 -0.1,0.28 -0.2,0.56 -0.29,0.85 -0.01,0.03 0.02,0.09 0.04,0.11 0.1,0.07 0.21,0.13 0.3,0.21 0.22,0.16 0.43,0.33 0.64,0.5 0.43,0.35 0.85,0.7 1.28,1.05 0.09,0.07 0.19,0.13 0.29,0.19 0.04,0.03 0.07,0.02 0.08,-0.03 0.07,-0.24 0.14,-0.47 0.2,-0.71 0.07,-0.27 0.12,-0.54 0.19,-0.8 0.04,-0.13 0.12,-0.26 0.13,-0.4 0.05,-0.36 0.18,-0.71 0.28,-1.05 0.11,-0.36 0.23,-0.72 0.31,-1.08 0.08,-0.35 0.1,-0.71 0.18,-1.07 0.06,-0.32 0.16,-0.64 0.24,-0.96 0.09,-0.3 0.18,-0.6 0.26,-0.9 0.1,-0.35 0.17,-0.71 0.28,-1.06 0.07,-0.21 0.06,-0.44 0.16,-0.64 0.06,-0.11 0.1,-0.23 0.13,-0.34 0.09,-0.35 0.17,-0.7 0.24,-1.04 0.04,-0.18 0.07,-0.36 0.1,-0.53 0.01,-0.08 -0.02,-0.12 -0.11,-0.1 -0.05,0.01 -0.11,0.02 -0.17,0.01 -0.08,0 -0.1,0.04 -0.12,0.11 -0.07,0.45 -0.14,0.9 -0.23,1.34 -0.05,0.28 -0.14,0.55 -0.2,0.83 -0.06,0.3 -0.1,0.61 -0.17,0.9 -0.22,0.81 -0.45,1.61 -0.68,2.41 -0.1,0.36 -0.23,0.71 -0.32,1.07 -0.11,0.47 -0.2,0.94 -0.3,1.4 -0.01,0.06 -0.04,0.1 -0.1,0.1 -0.13,0 -0.24,-0.01 -0.36,-0.07 -0.09,-0.05 -0.2,-0.08 -0.3,-0.12 -0.39,-0.14 -0.79,-0.26 -1.18,-0.4 -0.21,-0.08 -0.42,-0.18 -0.62,-0.26zm2.43 0.72c0.03,-0.15 0.04,-0.29 0.07,-0.42 0.18,-0.67 0.3,-1.34 0.52,-2 0.19,-0.54 0.33,-1.09 0.49,-1.64 0.15,-0.51 0.27,-1.02 0.36,-1.54 0.06,-0.35 0.16,-0.7 0.23,-1.05 0.1,-0.51 0.19,-1.02 0.29,-1.54 0.02,-0.11 0.04,-0.22 0.06,-0.34 -0.29,0 -0.57,0 -0.84,0 -0.03,0 -0.07,0.03 -0.08,0.05 -0.07,0.16 -0.15,0.33 -0.2,0.49 -0.12,0.38 -0.24,0.75 -0.41,1.1 -0.12,0.24 -0.25,0.47 -0.35,0.71 -0.19,0.45 -0.33,0.92 -0.55,1.37 -0.19,0.37 -0.35,0.76 -0.52,1.14 -0.08,0.19 -0.13,0.39 -0.22,0.57 -0.09,0.18 -0.15,0.36 -0.17,0.56 -0.01,0.07 -0.03,0.14 -0.01,0.2 0.02,0.09 0.07,0.16 0.12,0.24 0.14,0.22 0.3,0.42 0.43,0.65 0.25,0.44 0.5,0.88 0.75,1.32 0.01,0.03 0.01,0.06 0.02,0.09 -0.01,0 -0.02,0.01 -0.02,0.01 -0.03,-0.02 -0.05,-0.04 -0.07,-0.06 -0.1,-0.18 -0.22,-0.35 -0.31,-0.53 -0.26,-0.54 -0.58,-1.03 -0.92,-1.52 -0.01,-0.01 -0.03,-0.02 -0.05,-0.04 -0.05,0.56 -0.07,1.12 -0.23,1.66 0.14,0.05 0.27,0.11 0.4,0.15 0.34,0.12 0.68,0.23 1.02,0.34 0.06,0.02 0.12,0.02 0.19,0.03zm2.52 -7.88c-0.11,0.49 -0.22,0.98 -0.34,1.47 -0.04,0.15 -0.12,0.3 -0.15,0.46 -0.06,0.27 -0.09,0.55 -0.13,0.82 -0.05,0.38 -0.11,0.75 -0.16,1.12 -0.04,0.36 -0.07,0.71 -0.11,1.07 -0.06,0.62 -0.14,1.25 -0.21,1.88 -0.03,0.24 -0.08,0.47 -0.09,0.71 -0.02,0.43 -0.01,0.87 -0.03,1.3 -0.01,0.16 0.04,0.28 0.14,0.4 0.17,0.18 0.33,0.37 0.49,0.56 0.21,0.25 0.42,0.51 0.63,0.77 0.05,0.06 0.11,0.11 0.18,0.18 0.01,-0.12 0.03,-0.2 0.03,-0.29 0.03,-0.69 0.09,-1.37 0.16,-2.05 0.06,-0.59 0.12,-1.17 0.12,-1.76 0,-0.6 0.01,-1.2 0.04,-1.79 0.01,-0.32 0.03,-0.64 0.06,-0.95 0.03,-0.33 0.08,-0.65 0.09,-0.98 0.03,-0.52 0.04,-1.04 0.04,-1.57 0.01,-0.43 0,-0.86 0,-1.3 0,-0.01 0,-0.02 -0.01,-0.05 -0.25,0 -0.49,0 -0.75,0zm-1.35 -1.03c-0.06,0.03 -0.08,0.04 -0.1,0.05 -0.41,0.27 -0.86,0.36 -1.34,0.39 -0.19,0.01 -0.39,0.01 -0.59,0.02 -0.09,0 -0.16,0.03 -0.22,0.1 -0.08,0.12 -0.18,0.23 -0.26,0.36 -0.31,0.47 -0.62,0.95 -0.93,1.42 -0.22,0.35 -0.45,0.69 -0.68,1.03 -0.09,0.13 -0.18,0.24 -0.26,0.37 -0.17,0.27 -0.33,0.55 -0.51,0.82 -0.27,0.41 -0.54,0.8 -0.81,1.21 -0.16,0.24 -0.31,0.48 -0.46,0.72 -0.06,0.1 -0.13,0.19 -0.19,0.29 0.02,0.01 0.02,0.02 0.02,0.02 0.52,0.22 1.03,0.45 1.55,0.67 0.03,0.02 0.09,0.01 0.11,-0.01 0.08,-0.09 0.16,-0.19 0.24,-0.28 0.4,-0.5 0.71,-1.06 1.04,-1.6 0.17,-0.28 0.35,-0.54 0.53,-0.81 0.05,-0.08 0.09,-0.16 0.14,-0.24 0.29,-0.46 0.59,-0.91 0.88,-1.37 0.26,-0.41 0.56,-0.8 0.79,-1.23 0.12,-0.24 0.29,-0.45 0.42,-0.69 0.18,-0.3 0.35,-0.6 0.51,-0.91 0.05,-0.1 0.07,-0.21 0.12,-0.33zm2.25 1.14c-0.01,0.8 -0.02,1.63 -0.02,2.45 -0.01,0.18 0.01,0.36 0.03,0.55 0.03,0.29 0.07,0.58 0.12,0.87 0.12,0.68 0.25,1.36 0.37,2.04 0.03,0.16 0.06,0.31 0.09,0.47 0.18,-0.02 0.37,-0.04 0.55,-0.06 0.18,-0.01 0.36,-0.02 0.54,-0.05 0.18,-0.03 0.35,-0.09 0.52,-0.13 0.01,0.01 0.01,0.02 0.01,0.03 -0.02,0.02 -0.04,0.05 -0.07,0.05 -0.17,0.05 -0.34,0.11 -0.51,0.13 -0.32,0.05 -0.64,0.07 -0.97,0.1 -0.03,0 -0.06,0.01 -0.08,0.03 -0.25,0.34 -0.5,0.7 -0.76,1.04 -0.11,0.13 -0.14,0.28 -0.14,0.44 -0.01,0.1 -0.02,0.19 -0.03,0.28 -0.01,0.05 -0.01,0.1 -0.01,0.15 0.06,0 0.1,0 0.15,0 0.29,-0.04 0.58,-0.07 0.87,-0.12 0.41,-0.07 0.82,-0.15 1.22,-0.24 0.21,-0.04 0.41,-0.1 0.62,-0.15 0.06,-0.02 0.07,-0.05 0.06,-0.12 -0.07,-0.35 -0.15,-0.69 -0.21,-1.04 -0.07,-0.47 -0.12,-0.93 -0.19,-1.4 -0.09,-0.57 -0.26,-1.13 -0.3,-1.71 -0.03,-0.43 -0.1,-0.86 -0.21,-1.28 -0.07,-0.25 -0.05,-0.51 -0.1,-0.76 -0.1,-0.59 -0.21,-1.18 -0.32,-1.77 -0.41,0.06 -0.81,0.13 -1.23,0.2zm-2.48 -2.78c-0.21,-0.14 -0.43,-0.29 -0.63,-0.45 -0.15,-0.12 -0.28,-0.24 -0.41,-0.38 -0.1,-0.1 -0.2,-0.15 -0.34,-0.15 -0.56,-0.01 -1.12,-0.01 -1.69,-0.03 -0.83,-0.02 -1.66,-0.04 -2.5,-0.06 -0.13,-0.01 -0.26,-0.01 -0.4,-0.01 -0.05,0 -0.08,-0.02 -0.09,-0.02 -0.36,-0.11 -2.59,-0.7 -2.55,-0.9 0.01,-0.04 0.09,-0.12 0.09,-0.12l0 0c-2.03,-0.82 2.42,0.86 2.59,0.88 0.23,0.04 0.65,0.05 1.49,0.07 0.74,0.02 1.11,0.01 1.59,0.02 0.54,0.01 1.08,0.03 1.62,0.04 0.05,0 0.1,0 0.15,0.02 0.02,0 0.05,0.03 0.07,0.05 0.03,0.04 0.04,0.09 0.07,0.13 0.23,0.27 0.52,0.46 0.81,0.65 0.26,0.18 0.52,0.34 0.71,0.6 0.03,0.03 0.06,0.07 0.1,0.13 0.08,-0.21 0.16,-0.41 0.23,-0.6 0.01,-0.03 -0.01,-0.07 -0.02,-0.11 -0.04,-0.14 -0.08,-0.29 -0.12,-0.43 0,-0.03 0,-0.07 0.01,-0.1 0.01,-0.03 0.04,-0.04 0.06,-0.07 0.03,0.03 0.06,0.05 0.07,0.08 0.01,0.04 0,0.08 0,0.15 0.11,-0.09 0.19,-0.17 0.24,-0.29 0.04,-0.07 0.06,-0.16 0.1,-0.23 0.01,-0.03 0.05,-0.05 0.08,-0.07 0.02,0.03 0.05,0.07 0.04,0.09 -0.01,0.07 -0.03,0.14 -0.06,0.2 -0.08,0.13 -0.09,0.25 0.01,0.37 0.03,-0.06 0.06,-0.13 0.1,-0.19 0.02,-0.02 0.06,-0.03 0.09,-0.04 0.01,0.04 0.03,0.08 0.03,0.11 -0.02,0.05 -0.06,0.1 -0.08,0.14 -0.03,0.06 -0.02,0.11 0.03,0.17 0.11,0.14 0.2,0.29 0.31,0.43 0.02,0.03 0.06,0.04 0.09,0.06 0.02,-0.04 0.06,-0.08 0.06,-0.12 -0.01,-0.16 -0.03,-0.31 -0.05,-0.46 -0.03,-0.18 -0.05,-0.36 -0.09,-0.53 -0.04,-0.17 -0.1,-0.34 -0.16,-0.51 -0.01,-0.04 -0.06,-0.08 -0.1,-0.1 -0.24,-0.13 -0.52,-0.17 -0.79,-0.23 -0.55,-0.1 -1.1,-0.25 -1.65,-0.35 -1.4,-0.25 -2.1,-0.38 -2.94,-0.68 -0.98,-0.35 -0.73,-0.43 -1.96,-0.92 -0.26,-0.1 -0.81,-0.31 -0.78,-0.49 0,-0.04 0.04,-0.07 0.07,-0.09 -0.05,-0.03 -0.05,-0.04 -0.05,-0.04 0.02,-0.04 2.26,1.41 4.2,1.78 0.3,0.06 0.84,0.17 1.62,0.34 0.29,0.06 0.58,0.15 0.88,0.21 0.3,0.06 0.61,0.11 0.91,0.17 0.21,0.04 0.41,0.09 0.59,0.2 0.06,0.04 0.11,0.1 0.14,0.17 0.13,0.29 0.19,0.61 0.22,0.93 0.02,0.18 0.06,0.35 0.08,0.53 0.02,0.12 -0.01,0.23 -0.13,0.3 -0.05,0.03 -0.04,0.06 -0.02,0.1 0.15,0.37 0.31,0.74 0.46,1.11 0.06,0.16 0.11,0.32 0.16,0.48 0.07,0.22 0.14,0.43 0.21,0.67 0.16,-0.03 0.32,-0.06 0.48,-0.09 0.16,-0.03 0.33,-0.05 0.49,-0.08 0.05,-0.01 0.1,-0.01 0.11,0.07 0.05,0.31 0.1,0.62 0.15,0.92 0.05,0.3 0.14,0.6 0.16,0.89 0.01,0.5 0.17,0.98 0.24,1.47 0.05,0.38 0.08,0.77 0.14,1.15 0.03,0.25 0.1,0.5 0.14,0.74 0.06,0.34 0.12,0.67 0.17,1.01 0.07,0.47 0.14,0.95 0.22,1.43 0.03,0.16 0.07,0.32 0.12,0.47 0.02,0.07 0,0.11 -0.06,0.14 -0.21,0.13 -0.45,0.16 -0.68,0.2 -0.55,0.1 -1.1,0.21 -1.65,0.31 -0.23,0.03 -0.46,0.05 -0.69,0.08 -0.03,0.19 -0.06,0.38 -0.08,0.57 -0.03,0.53 -0.06,1.05 -0.09,1.57 -0.01,0.16 -0.02,0.18 -0.19,0.18 -0.37,0 -0.74,0 -1.11,-0.02 -0.46,-0.03 -0.92,-0.06 -1.38,-0.11 -0.29,-0.03 -0.58,-0.11 -0.82,-0.29 -0.12,-0.09 -0.22,-0.19 -0.33,-0.28 -0.24,-0.19 -0.48,-0.38 -0.71,-0.57 -0.28,-0.22 -0.55,-0.45 -0.83,-0.67 -0.13,-0.11 -0.27,-0.2 -0.41,-0.3 -0.17,-0.12 -0.18,-0.15 -0.11,-0.34 0.15,-0.41 0.28,-0.83 0.42,-1.24 0.02,-0.04 0.01,-0.07 -0.04,-0.09 -0.24,-0.11 -0.48,-0.23 -0.72,-0.35 -0.27,-0.12 -0.55,-0.24 -0.83,-0.36 -0.36,-0.16 -0.73,-0.32 -1.09,-0.48 -0.1,-0.04 -0.11,-0.08 -0.04,-0.19 0.27,-0.41 0.55,-0.82 0.82,-1.23 0.44,-0.68 0.88,-1.37 1.32,-2.05 0.06,-0.1 0.15,-0.18 0.21,-0.27 0.25,-0.38 0.49,-0.75 0.73,-1.14 0.34,-0.54 0.68,-1.1 1.1,-1.6 0.04,-0.05 0.14,-0.08 0.22,-0.09 0.13,-0.02 0.26,-0.01 0.39,-0.01 0.08,0.01 0.13,-0.03 0.17,-0.1 0.11,-0.2 0.2,-0.41 0.34,-0.59 0.3,-0.43 0.63,-0.84 0.95,-1.27z"/>
   <path class="fil1" d="M14.09 22.77c-0.11,-0.08 -0.21,-0.15 -0.32,-0.22 -0.3,-0.22 -0.6,-0.43 -0.9,-0.64 -0.25,-0.17 -0.51,-0.34 -0.76,-0.51 -0.04,-0.02 -0.08,-0.04 -0.12,-0.06 -0.01,-0.01 -0.02,-0.03 -0.03,-0.05 0.02,-0.01 0.05,-0.02 0.06,-0.02 0.04,0.01 0.07,0.03 0.1,0.05 0.51,0.34 1.01,0.69 1.51,1.03 0.14,0.1 0.28,0.2 0.41,0.3 0.03,0.02 0.05,0.06 0.08,0.08 -0.01,0.02 -0.02,0.03 -0.03,0.04z"/>
   <path class="fil2" d="M7.45 24.01c6.02,-4.81 12.03,-9.61 18.05,-14.42 0.38,-0.3 -0.16,-0.84 -0.54,-0.54 -6.02,4.81 -12.03,9.61 -18.05,14.42 -0.39,0.31 0.16,0.85 0.54,0.54l0 0z"/>
   <path class="fil1" d="M4.73 15.99c0,6.22 5.05,11.29 11.25,11.29 6.24,0 11.31,-5.06 11.3,-11.31 -0.01,-6.2 -5.07,-11.24 -11.29,-11.24 -6.21,0 -11.26,5.06 -11.26,11.26zm-1.04 -0.01c0.03,-6.79 5.56,-12.31 12.32,-12.28 6.86,0.02 12.32,5.55 12.29,12.35 -0.02,6.83 -5.53,12.25 -12.28,12.25 -6.84,0.01 -12.35,-5.53 -12.33,-12.32z"/>
  </g>
 </g>
</svg>
