<svg xmlns="http://www.w3.org/2000/svg" xmlns:xlink="http://www.w3.org/1999/xlink" width="32" height="32" viewBox="0 0 32 32">
    <defs>
        <path id="a" d="M0 .803h21.201V22H0z"/>
        <path id="c" d="M0 22.078h21.201V.88H0z"/>
    </defs>
    <g fill="none" fill-rule="evenodd">
        <path fill="#D8F0FF" d="M16 32C7.163 32 0 24.837 0 16S7.163 0 16 0s16 7.163 16 16-7.163 16-16 16z"/>
        <g transform="translate(5 5)">
            <path fill="#F36368" d="M7.778 8.83c.25.012.458-.22.46-.46l.005-.093c.001-.082 0 .028-.007.037.02-.025.02-.096.032-.13.039-.118-.05.076.012-.025a.565.565 0 0 0 .03-.05c.038-.067.012.03-.025.03.013 0 .073-.076.083-.086.066-.065-.098.064.008-.006a.904.904 0 0 1 .08-.046c.015-.008.045-.017.056-.028 0 0-.117.045-.054.023a1.79 1.79 0 0 1 .203-.061l.077-.015c.11-.022-.099.01-.035.004.086-.008.172-.011.26-.011h4.819c.039 0 .078.003.116.004.095.003-.006.02-.014-.003.003.008.134.028.144.03l.053.017c.014.005.095.04.02.006-.074-.035.053.028.073.04.024.013.046.032.072.045.038.02.017.044-.035-.03.02.028.062.054.086.078.026.026.05.055.077.082.047.048-.03-.036-.031-.042.005.016.026.037.037.05.038.056.07.114.1.174.02.04.051.148-.002-.011l.03.077c.033.093.054.188.07.285.111.67.222 1.341.331 2.012.08.49.158.979.234 1.467l.025.17c.005.033.046.199.013.077.026.096.02.214.014.313 0 .027-.003.055-.005.082-.007.095.02-.091.004-.03-.01.035-.014.072-.024.108-.004.016-.041.092-.036.109-.014-.04.054-.106.011-.03-.007.01-.013.024-.019.036l-.032.052c-.025.044-.063.048.027-.029-.022.018-.038.045-.058.065-.022.022-.045.042-.068.063-.064.062.1-.066.014-.011-.056.033-.113.06-.17.092.136-.076.065-.027.016-.011-.022.009-.047.016-.07.023-.052.014-.105.025-.158.035-.113.021.092-.009.039-.004l-.064.006c-.061.005-.123.007-.184.005-.829-.024-1.66-.003-2.486-.003a.469.469 0 0 0-.462.462V15.54c-.001.07-.007.139-.011.208l-.012.124c-.008.09.016-.091-.004.027a2.76 2.76 0 0 1-.092.398l-.035.098c-.035.094.037-.073.003-.009-.022.043-.041.088-.067.13a.754.754 0 0 1-.046.07c-.004.01-.011.019-.016.027-.035.056.035-.045.036-.045-.033.027-.057.067-.09.098-.013.015-.029.03-.044.043-.062.057-.003-.005.032-.023-.035.018-.065.046-.1.065-.018.011-.038.019-.057.03-.064.035.028-.015.052-.02-.034.007-.07.025-.105.035-.037.01-.075.016-.11.025-.08.019.115-.01.054-.007-.015 0-.03.003-.044.004a1.295 1.295 0 0 1-.202 0c-.03-.001-.156-.016-.049-.002.106.014-.008-.003-.035-.008a2.017 2.017 0 0 1-.288-.08l-.052-.02c-.078-.028.106.05.07.03-.008-.005-.019-.008-.028-.013l.228.399v-1.102c0-.62.054-1.258-.192-1.842a2.799 2.799 0 0 0-.854-1.105c-.442-.348-.963-.636-1.51-.78l.338.443V8.369a.47.47 0 0 0-.461-.462c-.25-.01-.46.22-.46.462l-.001.545v3.824c0 .201.143.393.338.444.048.013.096.03.142.044l.167.06c.033.014.066.03.1.041-.167-.06-.04-.016 0 .002a4.105 4.105 0 0 1 .676.385l.056.042c.074.051-.087-.072-.018-.014.031.025.063.05.093.076.08.07.157.144.23.222.034.037.065.076.098.114.059.068-.052-.074-.018-.024.012.018.025.034.038.051.065.092.122.188.172.288l.033.072c.043.088-.038-.104-.005-.011l.044.127c.02.063.035.126.048.19.007.027.01.056.015.085.019.102-.008-.113-.001-.007.008.133.01.267.01.402V17.123c0 .153.086.329.229.398.236.115.484.177.744.21.365.042.763-.025 1.066-.24.495-.349.7-.911.778-1.492.054-.397.04-.796.04-1.197v-1.03l-.46.46H13.853c.299 0 .606.02.902-.02.322-.043.618-.156.872-.364.32-.263.464-.664.49-1.068.016-.256-.035-.511-.073-.764l-.117-.74c-.079-.493-.159-.987-.24-1.48-.077-.473-.137-.954-.236-1.424a1.867 1.867 0 0 0-.325-.716 1.644 1.644 0 0 0-1.244-.664c-.26-.016-.526-.002-.787-.002H9.792c-.31 0-.622-.006-.933 0a1.926 1.926 0 0 0-.876.218c-.432.232-.66.678-.664 1.16-.004.26.213.45.459.463"/>
            <path fill="#2377B6" d="M7.43 12.407H5.99c-.025 0-.06-.006-.085 0h-.013c.006-.015.109.04.024.002.06.027.068.03.024.007.014.01.028.022.042.034-.075-.065.044.08-.002-.007.006.013.036.094.015.018.109.394.006.06.01.053.004-.006 0-.022 0-.03.008-.127 0-.257 0-.386V7.985c0-.05.012-.08-.01 0 .025-.097-.06.072 0-.008-.01.012-.07.067-.012.02l-.043.032c.036-.018.037-.019.003-.004a.342.342 0 0 1-.027.011c.051-.011.042-.01-.024.003h.049c.106.004.215 0 .321 0h.92c.067 0 .173.021.238 0h.01l-.055-.01c.039.012.04.01.006-.004a.197.197 0 0 1-.026-.01c.043.025.038.019-.016-.018.058.047-.002-.008-.011-.02.06.079-.026-.09 0 .008 0-.003-.006-.06-.01-.052-.01.015 0 .068 0 .086v4.161c0 .102-.02.224 0 .324.004.02-.02.067.01-.043-.021.075.01-.006.016-.018-.047.087.072-.058-.005.006.013-.01.085-.054.017-.019l.05-.02c-.05.01-.041.01.025-.003-.24.01-.473.198-.46.446.01.232.202.457.46.446.484-.023.81-.38.81-.839V7.987a.817.817 0 0 0-.81-.84c-.495-.015-.995-.002-1.49 0-.475.003-.848.328-.858.796-.004.12 0 .242 0 .363v4.079c0 .263.047.513.26.704.266.242.608.21.94.21h1.148c.24 0 .472-.205.46-.445a.461.461 0 0 0-.46-.447"/>
            <g transform="translate(0 .078)">
                <mask id="b" fill="#fff">
                    <use xlink:href="#a"/>
                </mask>
                <path fill="#2377B6" d="M19.367 12.13l.755 1.308.09.155c.013.026.017.035.032.06.044.083-.004-.012-.007-.015.04.03.012.128.044.16a1.306 1.306 0 0 0-.007-.057c.003.021.004.043.006.065v.066c0 .02.006.08-.006.097l.007-.06a.8.8 0 0 1-.03.125l-.011.032c-.018.047-.015.04.01-.02.006.028-.069.119-.083.14-.048.076.013-.012.013-.016-.002.019-.056.061-.068.072a.867.867 0 0 1-.05.045.28.28 0 0 0 .012-.01c-.015.01-.029.02-.044.028l-.157.09c-.44.254-.885.503-1.32.763-.454.27-.721.75-.724 1.277-.002.242 0 .484 0 .726v.942c0 .028-.003.057-.004.084-.003.037-.001.022.006-.04a.832.832 0 0 1-.03.128l-.01.03c-.019.048-.015.04.01-.02.006.034-.062.11-.078.138-.03.05.01.015.015-.016-.003.015-.04.045-.053.058l-.057.055c-.068.068.07-.04-.006.005-.03.016-.106.084-.14.078l.052-.021a.829.829 0 0 1-.061.02c-.021.007-.042.013-.064.018a.525.525 0 0 0-.031.007c-.051.01-.043.01.024-.001-.007.006-.063.004-.067.004l-.045.001H16.1c-.21 0-.425-.014-.635.01a1.501 1.501 0 0 0-1.14.766 265.098 265.098 0 0 1-.823 1.425c-.013.021-.027.055-.047.072.068-.055.03-.035.008-.015l-.07.07c-.071.075.078-.045-.01.01-.02.015-.11.089-.14.082l.051-.021-.045.017-.078.022c-.02.005-.097.041-.034.01.055-.027-.007.001-.035.002a.828.828 0 0 1-.13-.002c-.052-.005-.044-.004.025.004-.013.01-.151-.033-.161-.044.003.003.099.05.018.006l-.063-.033-.045-.026c-.095-.055-.189-.11-.285-.164l-.82-.474c-.242-.14-.48-.297-.76-.347a1.497 1.497 0 0 0-1.007.167c-.055.03-.107.062-.162.093l-.798.462c-.167.096-.335.195-.504.29l-.076.04c-.06.031.104-.031 0-.003l-.063.019c-.012.001-.022.005-.033.007-.051.01-.042.01.026 0-.037.02-.125.007-.163.005-.007 0-.056 0-.065-.005.07.01.078.01.027 0-.015-.004-.032-.007-.047-.012-.026-.006-.052-.016-.077-.024-.095-.028.05.04.005.003-.035-.03-.098-.062-.139-.084-.055-.029.077.074.004 0l-.048-.047-.022-.024c-.033-.039-.029-.034.009.014a.53.53 0 0 1-.056-.087c-.257-.43-.502-.867-.752-1.3-.179-.311-.39-.594-.731-.745-.302-.133-.598-.14-.918-.14H3.887c-.02 0-.07.005-.085-.005.068.01.076.01.025 0a.334.334 0 0 1-.032-.006c-.032-.008-.062-.018-.094-.028-.087-.025.021.011.021.011-.033.006-.108-.06-.14-.078-.089-.053.069.068-.005-.006l-.047-.043c-.012-.012-.061-.053-.063-.07l.033.043c-.012-.018-.024-.034-.035-.053-.015-.022-.026-.046-.04-.068-.002-.006-.005-.01-.008-.015-.02-.045-.019-.04.008.022-.028-.022-.037-.126-.045-.155-.023-.09 0 .023.001.023-.012-.015-.005-.08-.005-.1v-.014c-.003-.237 0-.473 0-.71v-.859c0-.426-.119-.83-.43-1.137-.181-.181-.42-.3-.642-.426l-.827-.478c-.085-.049-.17-.097-.256-.148-.021-.012-.04-.022-.06-.035-.005-.003-.095-.07-.038-.023.057.046-.026-.026-.03-.03-.02-.019-.037-.04-.057-.06-.022-.026-.016-.016.02.03-.013-.017-.025-.036-.037-.054l-.034-.056-.015-.029c-.022-.045-.02-.038.007.022-.031-.033-.035-.113-.047-.154-.016-.053-.025-.013 0 .027-.01-.02-.006-.076-.006-.097l.001-.066c.001-.022.003-.043.006-.065l-.007.058a.417.417 0 0 1 .044-.161l-.022.048.031-.062c.008-.015.01-.02.017-.03l.03-.054c.265-.457.53-.914.793-1.372a1.492 1.492 0 0 0 .02-1.492c-.1-.183-.208-.363-.312-.543l-.45-.778-.09-.157C.973 9.174.953 9.145.946 9.12c.028.103.015.027.006 0-.01-.027-.013-.054-.021-.081-.031-.1-.005.071-.002.009.002-.049-.006-.098-.004-.146l.002-.033a1.226 1.226 0 0 0-.003.027.427.427 0 0 1 .022-.095c.006-.022.015-.075.031-.092-.003.004-.052.098-.007.022.026-.042.049-.104.086-.139-.078.073-.019.028.002.005l.06-.058c.074-.076-.057.033 0 0l.072-.047c.051-.031.103-.06.155-.09.265-.152.53-.305.796-.46.17-.097.343-.194.513-.295.455-.273.72-.753.722-1.283.003-.526 0-1.052 0-1.578V4.669l.002-.034a.287.287 0 0 0-.005.023c-.008-.016.018-.08.022-.096.007-.024.02-.051.025-.077.009-.059-.053.093-.003.007.02-.033.05-.12.083-.135-.031.014-.053.06-.013.019.022-.022.043-.046.066-.068.003-.003.039-.041.048-.042-.052.039-.058.044-.018.016.013-.01.027-.018.04-.026.023-.014.047-.026.07-.039.086-.05-.066.011-.006.002.049-.007.106-.03.156-.043.066-.017-.116.005-.007.002l.068-.002h1.222c.245 0 .492.013.734-.027.447-.075.802-.375 1.024-.76l.416-.72.378-.655c.016-.027.035-.055.05-.084.022-.034.012-.052-.01.013.008-.024.05-.058.069-.074l.048-.044a.335.335 0 0 0-.015.012.29.29 0 0 0 .027-.02l.085-.047c.076-.045-.019.002-.022.005.032-.03.112-.033.154-.045.103-.032-.102 0 .006-.003l.064-.003c.033-.001.066.001.099.003.091.003-.09-.027.006.003.027.008.055.012.081.02.091.029-.003.006 0-.004l.094.048c.02.01.038.022.056.033.098.055.195.111.29.167l.821.474c.27.156.524.307.843.35.405.054.749-.09 1.089-.286.436-.251.866-.52 1.31-.757l.032-.014c.046-.022.04-.02-.017.006.006-.007.06-.02.063-.021.013-.004.09-.03.098-.023 0 0-.12.008-.026.003a2.51 2.51 0 0 1 .163 0c.1.004-.064-.027-.011 0 .031.015.076.017.11.028.009.003.052.014.061.021l-.05-.02.057.03c.019.01.037.021.056.033l.027.018c.04.03.035.026-.015-.012.024.003.11.097.116.119-.001-.007-.057-.09-.01-.013.013.023.024.037.037.06.105.176.205.355.308.533l.455.789c.027.047.053.094.082.14.175.294.432.506.748.63.266.105.546.093.827.093H17.298l.072.003c.096.002-.024-.005-.024-.005.02-.01.093.02.112.025.018.005.065.013.077.027a1.308 1.308 0 0 0-.052-.022.33.33 0 0 1 .044.022c.023.014.047.025.069.04.007.004.092.065.03.018-.059-.047.021.02.027.025l.055.056c.003.005.008.008.011.012a.354.354 0 0 0-.013-.019c.013.006.045.067.052.08.009.014.048.068.045.085 0 0-.036-.11-.01-.021.01.036.017.128.04.158-.036-.048-.007-.077-.004-.007l.001.052v.021c.003.525 0 1.048 0 1.573 0 .43.129.85.455 1.15.191.175.43.293.654.421.272.158.544.316.816.472.079.046.158.09.236.137.029.016.056.035.084.05.094.055-.06-.065.013.012.016.016.033.03.049.047.018.017.1.083.014.006.022.02.04.056.053.08.014.023.024.054.04.072.038.045-.03-.1-.003-.006.007.025.058.142.042.157.002-.002-.006-.1-.004-.027.002.033.004.064.004.097 0 .023-.003.044-.004.066-.005.052-.004.043.004-.026a.524.524 0 0 1-.015.065c-.005.023-.012.043-.018.065-.028.104.034-.06.003 0-.014.025-.027.053-.042.079a186.627 186.627 0 0 1-.446.77l-.376.653a1.493 1.493 0 0 0-.022 1.492c.116.212.424.298.63.165a.47.47 0 0 0 .165-.63c-.007-.014-.056-.132-.022-.035l-.025-.076a.92.92 0 0 1-.026-.116c.016.095.004.025.004.004.003-.038.004-.079.003-.118.002.083-.008.035 0 .006l.03-.115c.033-.112-.04.064.018-.038.032-.059.067-.118.1-.176l.461-.8c.101-.174.204-.347.303-.522a1.476 1.476 0 0 0-.165-1.682c-.177-.211-.424-.335-.657-.47l-.838-.484-.286-.165c-.014-.01-.03-.017-.044-.026-.024-.014-.136-.107-.055-.031-.021-.022-.044-.04-.065-.062-.022-.022-.087-.122-.03-.03-.031-.05-.06-.1-.088-.152.045.082.015.038.008.012l-.03-.103c-.024-.083-.005.003 0 .016-.01-.032-.007-.075-.007-.108v-.016V5.17c0-.251.014-.506-.03-.756a1.447 1.447 0 0 0-1.13-1.13c-.248-.046-.505-.03-.757-.03h-1.222c-.03-.001-.043-.003-.073-.003-.112-.003.063.02-.002-.002-.027-.008-.057-.012-.086-.02-.004-.002-.112-.042-.044-.014.066.027-.037-.02-.042-.022-.03-.018-.059-.037-.089-.057.092.06.002 0-.016-.017l-.05-.05c-.082-.077.043.075-.017-.02l-.039-.062c-.01-.014-.018-.03-.026-.045l-.165-.285-.484-.839c-.137-.236-.264-.49-.483-.667a1.474 1.474 0 0 0-1.669-.154c-.444.248-.88.51-1.321.763l-.177.1c-.105.06.05-.006-.02.011-.031.008-.062.02-.094.028-.003.001-.126.018-.056.013.073-.006-.055-.001-.056-.001 0 0-.129-.005-.056 0 .07.006-.053-.01-.056-.012-.032-.007-.063-.02-.095-.028a.275.275 0 0 0 .017.008c-.024-.011-.048-.024-.072-.037-.176-.098-.348-.202-.523-.302-.263-.154-.527-.306-.791-.458C8.72.907 8.4.773 8.038.808c-.498.05-.911.322-1.163.755-.135.231-.268.462-.4.693-.133.23-.265.461-.399.69a1.44 1.44 0 0 1-.062.104c-.06.095.065-.057-.017.02-.019.015-.034.033-.05.05a.869.869 0 0 1-.031.027c-.026.014-.05.032-.076.046-.004.003-.107.05-.04.022.067-.028-.04.012-.045.014-.028.008-.058.012-.086.021-.066.021.11-.001-.002.001-.031.001-.043.003-.073.003h-.016c-.53.003-1.06 0-1.591 0-.423 0-.834.131-1.13.448-.289.307-.403.69-.403 1.103 0 .526.007 1.052 0 1.577v.01c0 .035.003.077-.005.11.003-.013.022-.1-.002-.017-.009.035-.02.069-.028.103-.007.027-.038.07.007-.011-.018.031-.031.063-.05.093-.014.023-.079.106-.008.022-.04.047-.081.086-.125.128.08-.076-.031.018-.055.032l-.054.031-.72.415-.661.382c-.44.255-.707.686-.749 1.19-.03.36.115.675.29.977l.468.811c.106.184.224.365.317.555-.01-.018-.026-.08-.001.002l.03.115c.007.03-.002.077 0-.006-.001.04 0 .08.002.12.001.02-.011.089.005-.006a.92.92 0 0 1-.027.116c-.006.025-.016.05-.025.076.035-.098-.014.02-.022.035-.029.052-.06.103-.09.154-.256.445-.53.884-.772 1.34a1.476 1.476 0 0 0 .214 1.688c.18.196.426.317.652.448l.829.479.275.158.038.022c.031.019.062.039.09.06-.015-.012-.064-.06-.01-.005l.075.077c.074.078-.04-.075.013.02l.053.09c.014.025.023.076-.003-.012.002.009.059.166.047.171a1.043 1.043 0 0 0 0 .02v1.303c0 .253-.014.513.04.762.122.545.602 1 1.153 1.086.247.039.498.025.747.025h1.193l.044.001c.011.001.068 0 .072.006l-.052-.006a.572.572 0 0 1 .07.015l.068.02c.11.033-.079-.047.02.008.02.013.042.023.062.035l.06.039c-.047-.037-.05-.04-.01-.007.024.025.136.153.072.065.022.03.042.06.06.092l.033.057.168.29.483.837c.158.274.306.528.566.723.458.343 1.085.357 1.577.082.186-.104.369-.213.553-.319l.781-.451c.066-.038.131-.078.2-.112-.09.046.023-.005.04-.01.024-.007.05-.012.076-.018.115-.027-.085-.009.034-.003.025.002.054.001.079 0 .122-.002-.085-.025.034.003.025.006.052.011.076.018.017.005.13.056.04.01l.072.038c.449.25.89.514 1.335.77.057.034.114.07.174.1.28.142.578.193.888.15.463-.06.843-.348 1.074-.748.267-.463.531-.926.8-1.387l.037-.063.04-.059c-.065.09.006 0 .021-.015.016-.017.036-.033.051-.049.04-.033.036-.031-.008.006a1.72 1.72 0 0 1 .059-.038l.06-.035c.099-.054-.088.02.021-.008.023-.006.046-.015.068-.02l.035-.009c.052-.01.047-.01-.017-.001.016-.019.105-.006.138-.006h1.587c.429 0 .853-.142 1.142-.47.278-.316.382-.688.382-1.1V17.1c0-.226-.004-.453 0-.68v-.044l.002-.037a.356.356 0 0 0-.002.016.479.479 0 0 1 .015-.07c.008-.034.023-.066.033-.101-.027.089-.018.038-.004.014.017-.03.036-.06.053-.092.053-.094-.061.06.013-.02l.075-.076c.014-.015.067-.05-.011.004.03-.02.06-.041.093-.06a.999.999 0 0 1 .061-.035c.46-.266.922-.53 1.382-.798.444-.259.723-.718.74-1.233.013-.35-.13-.649-.3-.943l-.74-1.28c-.12-.21-.421-.3-.629-.166a.47.47 0 0 0-.164.631" mask="url(#b)"/>
            </g>
            <mask id="d" fill="#fff">
                <use xlink:href="#c"/>
            </mask>
            <path fill="#2377B6" d="M5.361 12.42h2.64v-4.4h-2.64z" mask="url(#d)"/>
        </g>
    </g>
</svg>
