<svg xmlns="http://www.w3.org/2000/svg" xmlns:xlink="http://www.w3.org/1999/xlink" width="32" height="32" viewBox="0 0 32 32">
    <defs>
        <path id="a" d="M0 .145h19.99v22.966H0z"/>
    </defs>
    <g fill="none" fill-rule="evenodd">
        <path fill="#D8F0FF" d="M16 32C7.163 32 0 24.837 0 16S7.163 0 16 0s16 7.163 16 16-7.163 16-16 16z"/>
        <path fill="#2377B6" d="M26.974 25.569a3.47 3.47 0 0 1-2.486 1.023c-.936 0-1.814-.35-2.487-1.023a3.471 3.471 0 0 1-1.023-2.487c0-.936.35-1.814 1.023-2.487a3.475 3.475 0 0 1 2.487-1.024c.936 0 1.813.351 2.486 1.024a3.468 3.468 0 0 1 1.024 2.487c0 .936-.38 1.814-1.024 2.487m.264-5.237a3.849 3.849 0 0 0-2.75-1.141c-1.053 0-2.018.41-2.75 1.141a3.85 3.85 0 0 0-1.14 2.75 3.9 3.9 0 0 0 1.14 2.75 3.85 3.85 0 0 0 2.75 1.14 3.848 3.848 0 0 0 2.75-1.14 3.848 3.848 0 0 0 1.14-2.75c0-1.024-.41-1.989-1.14-2.75"/>
        <path fill="#2377B6" d="M24.488 19.927a3.14 3.14 0 0 0-3.155 3.155c0 .861.318 1.635.92 2.235.601.601 1.374.92 2.235.92.847 0 1.64-.327 2.232-.918a3.235 3.235 0 0 0 .922-2.237c0-.861-.318-1.634-.919-2.235a3.137 3.137 0 0 0-2.235-.92m0 7.401c-1.133 0-2.2-.443-3.002-1.244a4.277 4.277 0 0 1-1.244-3.002 4.22 4.22 0 0 1 1.244-3.001 4.224 4.224 0 0 1 3.002-1.246c1.131 0 2.198.443 3.002 1.246l.004.005c.8.831 1.24 1.896 1.24 2.996a4.224 4.224 0 0 1-1.244 3.002 4.223 4.223 0 0 1-3.002 1.244"/>
        <path fill="#F36368" d="M25.892 21.678c-.089-.088-.204-.088-.264 0l-1.17 1.17-1.14-1.14c-.088-.089-.205-.089-.263 0-.088.087-.088.204 0 .262l1.14 1.14-1.14 1.142c-.088.088-.088.205 0 .263a.22.22 0 0 0 .146.059c.058 0 .087-.03.146-.059l1.14-1.141 1.141 1.141c.03.03.088.059.147.059s.088-.03.146-.059c.088-.087.088-.204 0-.263l-1.17-1.141 1.141-1.14a.268.268 0 0 0 0-.293"/>
        <path fill="#F36368" d="M25.775 24.93a.576.576 0 0 1-.393-.16l-.894-.893-.986.96c-.148.082-.503.125-.7-.07-.071-.04-.152-.174-.166-.323a.553.553 0 0 1 .166-.442l.89-.891-.89-.889c-.072-.042-.152-.175-.166-.323a.556.556 0 0 1 .167-.443c.038-.071.172-.153.322-.168a.541.541 0 0 1 .445.17l.888.888.92-.92c.04-.071.173-.152.322-.167a.58.58 0 0 1 .442.167l.047.056a.62.62 0 0 1 0 .685l-.933.94.913.89c.077.045.157.179.172.326a.562.562 0 0 1-.168.445l-.095.067a.574.574 0 0 1-.303.095z"/>
        <path fill="#2377B6" d="M5.707 10.504l9.097 4.534v11.964L5.707 22.41V10.504zm3.891-2.166l9.069 4.534-3.686 1.843-9.07-4.533 3.687-1.844zm5.412-2.691l9.068 4.535-3.1 1.55-9.069-4.534 3.1-1.551zm5.705 10.941l-1.58.848v-4.388l1.58-.789v4.329zm-1.697-3.95l-8.982-4.504 1.463-.732 9.069 4.534-1.463.732c-.029 0-.058-.03-.087-.03zm.555 12.141l-4.388 2.223V15.038l3.57-1.785v4.505c0 .06.029.117.087.175.03.03.058.03.088.03.029 0 .057 0 .088-.03l1.96-1.053c.057-.029.087-.088.087-.175v-4.623l3.218-1.608v7.284c0 .117.088.175.176.175.117 0 .175-.087.175-.175v-7.635s0-.03-.029-.03l-.03-.029-.03-.029-9.448-4.769a.19.19 0 0 0-.175 0L9.598 7.93a.162.162 0 0 0-.147.087l-4.007 1.99s-.029 0-.029.03l-.03.028s0 .03-.03.03v12.432c0 .06.03.146.118.176l9.449 4.797H15.039l4.68-2.37a.234.234 0 0 0 .088-.263c-.03-.087-.117-.117-.234-.087z"/>
        <g transform="translate(5 4.744)">
            <mask id="b" fill="#fff">
                <use xlink:href="#a"/>
            </mask>
            <path fill="#2377B6" d="M7.704 2.454l8.273 4.136 2.306-1.153-8.274-4.136-2.305 1.153zM5.83 3.39l8.26 4.145.683-.341-8.274-4.138-.67.334zM1.707 5.437l8.274 4.136 2.89-1.445-8.273-4.136-2.89 1.445zM14.49 8.524v3.573l.869-.466V8.09l-.869.434zM1.064 17.446l8.385 4.234V10.514l-8.385-4.18v11.112zm9.06 5.665l-.363-.039-9.448-4.797c-.167-.05-.313-.257-.313-.493V5.052l.06-.01v-.107l.286-.021L4.22 2.99a.526.526 0 0 1 .274-.15L9.764.204c.16-.08.333-.08.49-.001l9.544 4.835-.004.006a.386.386 0 0 1 .196.335v7.634c0 .298-.234.531-.532.531a.526.526 0 0 1-.531-.53v-6.71L16.42 7.559v4.403c0 .222-.103.4-.283.492l-1.921 1.033c-.12.088-.243.088-.288.088-.05 0-.205 0-.338-.133a.6.6 0 0 1-.192-.427v-3.93l-2.858 1.429v11.166l3.945-1.99c.3-.08.57.057.659.32a.593.593 0 0 1-.229.673l-4.792 2.43z" mask="url(#b)"/>
        </g>
        <path fill="#2377B6" d="M19.045 13.294v4.445l1.778-.89v-5.332l-8.889-4.445-1.898 1.061z"/>
        <path fill="#2377B6" d="M10.938 8.138l8.552 4.899v3.983l.888-.445v-4.784l-8.432-4.216-1.008.563zm7.663 10.32v-4.906L9.135 8.13l2.787-1.56 9.345 4.673v5.882l-2.666 1.333z"/>
    </g>
</svg>
